# xmcd CD database file
#
# Track frame offsets:
#	150
#	21777
#	44375
#	67725
#
# Disc length: 1213 seconds
#
# Revision: 0
# Processed by: cddbd v1.5.1PL0 Copyright (c) Steve Scherf et al.
# Submitted via: CDex 1.51
#
DISCID=2804bb04
DTITLE=BENNIE K - My Way
DYEAR=1900
DGENRE=Hip-Hop
TTITLE0=My Way
TTITLE1=Crystal
TTITLE2=Superdome 813 Joint One Remix
TTITLE3=MY WAY Mine MIX
EXTD=
EXTT0=
EXTT1=
EXTT2=
EXTT3=
PLAYORDER=
